<svg width="50" height="50" viewBox="0 0 50 50" fill="none" xmlns="http://www.w3.org/2000/svg">
<g clip-path="url(#clip0_9_528)">
<path d="M33.1438 25.2562L50 35.9124V14.1499L33.1438 25.2562Z" fill="#F6D340"/>
<path d="M0 14.1499V35.9124L16.8563 25.2562L0 14.1499Z" fill="#F6D340"/>
<path d="M46.875 7.8125H3.125C1.56563 7.8125 0.328125 8.975 0.09375 10.4719L25 26.8813L49.9063 10.4719C49.6719 8.975 48.4344 7.8125 46.875 7.8125Z" fill="#F6D340"/>
<path d="M30.2813 27.1437L25.8594 30.0562C25.5969 30.2281 25.3 30.3125 25 30.3125C24.7 30.3125 24.4032 30.2281 24.1407 30.0562L19.7188 27.1406L0.100037 39.55C0.340662 41.0344 1.57191 42.1875 3.12504 42.1875H46.875C48.4282 42.1875 49.6594 41.0344 49.9 39.55L30.2813 27.1437Z" fill="#F6D340"/>
</g>
<defs>
<clipPath id="clip0_9_528">
<rect width="50" height="50" fill="white"/>
</clipPath>
</defs>
</svg>
