<svg width="20" height="20" viewBox="0 0 20 20" fill="none" xmlns="http://www.w3.org/2000/svg">
<path d="M17.6814 0.39776C18.2117 -0.132557 19.0715 -0.132557 19.6018 0.39776C20.1321 0.928078 20.1321 1.78789 19.6018 2.31821L2.31814 19.6023C1.78783 20.1326 0.928036 20.1326 0.39773 19.6023C-0.132577 19.0719 -0.132577 18.2121 0.39773 17.6818L17.6814 0.39776Z" fill="white"/>
<path d="M19.6023 17.6818C20.1326 18.2121 20.1326 19.0719 19.6023 19.6022C19.072 20.1326 18.2122 20.1326 17.6819 19.6022L0.398189 2.31819C-0.132117 1.78787 -0.132117 0.928056 0.398189 0.397738C0.928495 -0.132579 1.78829 -0.132579 2.3186 0.397738L19.6023 17.6818Z" fill="white"/>
</svg>
