<svg width="50" height="50" viewBox="0 0 50 50" fill="none" xmlns="http://www.w3.org/2000/svg">
<path d="M24.576 1.53809C15.5918 1.53809 8.28247 8.84743 8.28247 17.8316C8.28247 29.1238 24.592 48.4131 24.592 48.4131C24.592 48.4131 40.8695 28.5685 40.8695 17.8316C40.8695 8.84743 33.5605 1.53809 24.576 1.53809ZM29.4921 22.6024C28.1366 23.9576 26.3564 24.6354 24.576 24.6354C22.7959 24.6354 21.0152 23.9576 19.6602 22.6024C16.9494 19.8918 16.9494 15.4813 19.6602 12.7705C20.9728 11.4573 22.7189 10.734 24.576 10.734C26.4331 10.734 28.1789 11.4575 29.4921 12.7705C32.2029 15.4813 32.2029 19.8918 29.4921 22.6024Z" fill="#F6D340"/>
</svg>
