<svg width="512" height="512" viewBox="0 0 512 512" fill="none" xmlns="http://www.w3.org/2000/svg">
<path d="M256 492.17C386.433 492.17 492.17 386.433 492.17 256C492.17 125.567 386.433 19.8301 256 19.8301C125.567 19.8301 19.83 125.567 19.83 256C19.83 386.433 125.567 492.17 256 492.17Z" fill="#FAE055"/>
<path d="M256 512C114.853 512 0 397.167 0 256C0 114.853 114.853 0 256 0C397.167 0 512 114.853 512 256C512 397.167 397.167 512 256 512ZM256 39.659C136.705 39.659 39.659 136.705 39.659 256C39.659 375.295 136.705 472.341 256 472.341C375.295 472.341 472.341 375.275 472.341 256C472.341 136.705 375.295 39.659 256 39.659Z" fill="#FAE055"/>
<path d="M369.227 311.126C361.493 318.82 349.001 318.82 341.267 311.126L256.198 226.057L171.129 311.126C162.82 318.245 150.288 317.273 143.169 308.965C136.804 301.549 136.804 290.583 143.169 283.167L242.317 184.019C250.051 176.325 262.543 176.325 270.277 184.019L369.425 283.167C377.06 290.96 376.98 303.452 369.227 311.126Z" fill="white"/>
</svg>
